<svg width="682" height="483" viewBox="0 0 682 483" fill="none" xmlns="http://www.w3.org/2000/svg">
<path d="M332.576 118.237H480.066C482.329 118.237 484.089 116.478 484.089 114.216V28.2718C484.089 26.0101 482.329 24.251 480.066 24.251H332.576C330.312 24.251 328.552 26.0101 328.552 28.2718V114.091C328.552 116.352 330.312 118.237 332.576 118.237Z" stroke="#C0CCD8" stroke-miterlimit="10"/>
<path d="M484.089 41.3389H328.552" stroke="#C0CCD8" stroke-miterlimit="10"/>
<path d="M474.03 35.4332C475.419 35.4332 476.545 34.3081 476.545 32.9202C476.545 31.5323 475.419 30.4072 474.03 30.4072C472.641 30.4072 471.515 31.5323 471.515 32.9202C471.515 34.3081 472.641 35.4332 474.03 35.4332Z" stroke="#C0CCD8" stroke-miterlimit="10"/>
<path d="M461.331 32.9202C461.331 34.3024 462.462 35.4332 463.845 35.4332C465.229 35.4332 466.36 34.3024 466.36 32.9202C466.36 31.5381 465.229 30.4072 463.845 30.4072C462.462 30.4072 461.331 31.5381 461.331 32.9202Z" stroke="#C0CCD8" stroke-miterlimit="10"/>
<path d="M451.146 32.9202C451.146 34.3024 452.278 35.4332 453.661 35.4332C455.044 35.4332 456.176 34.3024 456.176 32.9202C456.176 31.5381 455.044 30.4072 453.661 30.4072C452.278 30.4072 451.146 31.5381 451.146 32.9202Z" stroke="#C0CCD8" stroke-miterlimit="10"/>
<path d="M565.819 128.038H528.978C525.457 128.038 522.565 125.148 522.565 121.63V84.8144C522.565 81.2962 525.457 78.4062 528.978 78.4062H565.819C569.339 78.4062 572.231 81.2962 572.231 84.8144V121.63C572.231 125.148 569.339 128.038 565.819 128.038Z" stroke="#C0CCD8" stroke-miterlimit="10" stroke-linejoin="round"/>
<path d="M547.335 117.357C555.182 117.357 561.544 111.001 561.544 103.159C561.544 95.3178 555.182 88.9609 547.335 88.9609C539.488 88.9609 533.127 95.3178 533.127 103.159C533.127 111.001 539.488 117.357 547.335 117.357Z" stroke="#C0CCD8" stroke-width="3" stroke-miterlimit="10"/>
<path d="M537.779 93.2324L557.897 113.211" stroke="#C0CCD8" stroke-width="3" stroke-miterlimit="10"/>
<path d="M177.918 122.509L188.229 111.829H346.784C354.202 111.829 360.238 105.798 360.238 98.384V15.9573C360.238 8.54391 354.202 2.5127 346.784 2.5127H187.475C180.056 2.5127 174.021 8.54391 174.021 15.9573V120.876C174.021 122.886 176.535 123.891 177.918 122.509Z" fill="white" stroke="#C0CCD8" stroke-miterlimit="10" stroke-linejoin="round"/>
<path d="M43.8826 272.536H7.04151C3.52086 272.536 0.628906 269.646 0.628906 266.127V229.312C0.628906 225.794 3.52086 222.904 7.04151 222.904H43.8826C47.4032 222.904 50.2952 225.794 50.2952 229.312V266.127C50.2952 269.646 47.4032 272.536 43.8826 272.536Z" stroke="#C0CCD8" stroke-miterlimit="10" stroke-linejoin="round"/>
<path d="M8.42451 260.85C8.0473 260.348 8.0473 259.594 8.42451 259.091L23.8902 232.328C24.2674 231.825 24.7704 231.448 25.3991 231.448C26.0278 231.448 26.6565 231.825 26.9079 232.328L42.3736 258.965C42.7508 259.468 42.7508 260.222 42.3736 260.725C41.9964 261.227 41.4935 261.604 40.8648 261.604H10.0591C9.80762 261.604 9.68188 261.604 9.43041 261.478C9.0532 261.478 8.67598 261.227 8.42451 260.85ZM25.5248 234.212L10.9393 259.468H40.1104L25.5248 234.212Z" fill="#C0CCD8"/>
<path d="M25.5245 254.191C26.1532 254.191 26.5304 253.688 26.6562 253.186L27.2849 242.631C27.2849 241.626 26.5304 240.872 25.5245 240.872C24.5186 240.872 23.7642 241.626 23.7642 242.631L24.3929 253.186C24.3929 253.688 24.8958 254.191 25.5245 254.191Z" fill="#C0CCD8"/>
<path d="M24.3931 256.704C24.3931 257.332 24.896 257.835 25.5247 257.835C26.1534 257.835 26.6563 257.332 26.6563 256.704C26.6563 256.075 26.1534 255.573 25.5247 255.573C24.896 255.573 24.3931 256.075 24.3931 256.704Z" fill="#C0CCD8"/>
<path d="M675.839 183.826C675.839 185.334 677.096 186.591 678.605 186.591C680.114 186.591 681.371 185.334 681.371 183.826C681.371 182.319 680.114 181.062 678.605 181.062C677.096 181.062 675.839 182.319 675.839 183.826Z" stroke="#C0CCD8" stroke-miterlimit="10" stroke-linecap="round" stroke-linejoin="round"/>
<path d="M205.078 333.099C205.078 334.607 206.335 335.863 207.844 335.863C209.353 335.863 210.61 334.607 210.61 333.099C210.61 331.591 209.353 330.335 207.844 330.335C206.335 330.335 205.078 331.591 205.078 333.099Z" stroke="#C0CCD8" stroke-miterlimit="10" stroke-linecap="round" stroke-linejoin="round"/>
<path d="M12.5737 103.159C12.5737 104.667 13.831 105.923 15.3399 105.923C16.8487 105.923 18.1061 104.667 18.1061 103.159C18.1061 101.651 16.8487 100.395 15.3399 100.395C13.831 100.395 12.5737 101.651 12.5737 103.159Z" stroke="#C0CCD8" stroke-miterlimit="10" stroke-linecap="round" stroke-linejoin="round"/>
<path d="M163.836 16.5856C163.836 18.0934 165.093 19.3499 166.602 19.3499C168.111 19.3499 169.368 18.0934 169.368 16.5856C169.368 15.0778 168.111 13.8213 166.602 13.8213C165.093 13.8213 163.836 15.0778 163.836 16.5856Z" stroke="#C0CCD8" stroke-miterlimit="10" stroke-linecap="round" stroke-linejoin="round"/>
<path d="M18.106 194.758V203.428" stroke="#C0CCD8" stroke-miterlimit="10" stroke-linecap="round" stroke-linejoin="round"/>
<path d="M13.8311 199.156H22.507" stroke="#C0CCD8" stroke-miterlimit="10" stroke-linecap="round" stroke-linejoin="round"/>
<path d="M244.937 361.873V370.543" stroke="#C0CCD8" stroke-miterlimit="10" stroke-linecap="round" stroke-linejoin="round"/>
<path d="M240.661 366.145H249.337" stroke="#C0CCD8" stroke-miterlimit="10" stroke-linecap="round" stroke-linejoin="round"/>
<path d="M428.513 0.62793V9.2978" stroke="#C0CCD8" stroke-miterlimit="10" stroke-linecap="round" stroke-linejoin="round"/>
<path d="M424.112 5.02637H432.788" stroke="#C0CCD8" stroke-miterlimit="10" stroke-linecap="round" stroke-linejoin="round"/>
<path d="M622.652 84.4375V93.1073" stroke="#C0CCD8" stroke-miterlimit="10" stroke-linecap="round" stroke-linejoin="round"/>
<path d="M618.377 88.709H627.053" stroke="#C0CCD8" stroke-miterlimit="10" stroke-linecap="round" stroke-linejoin="round"/>
<path d="M636.86 284.096V292.765" stroke="#C0CCD8" stroke-miterlimit="10" stroke-linecap="round" stroke-linejoin="round"/>
<path d="M632.459 288.368H641.135" stroke="#C0CCD8" stroke-miterlimit="10" stroke-linecap="round" stroke-linejoin="round"/>
<path d="M144.975 49.7578V58.4276" stroke="#C0CCD8" stroke-miterlimit="10" stroke-linecap="round" stroke-linejoin="round"/>
<path d="M140.7 54.0293H149.376" stroke="#C0CCD8" stroke-miterlimit="10" stroke-linecap="round" stroke-linejoin="round"/>
<path d="M572.231 234.715H659.116C660.625 234.715 661.882 233.458 661.882 231.951C661.882 230.443 660.625 229.186 659.116 229.186H572.231C570.722 229.186 569.465 230.443 569.465 231.951C569.465 233.458 570.722 234.715 572.231 234.715Z" stroke="#C0CCD8" stroke-miterlimit="10"/>
<path d="M61.1085 165.356H147.993C149.502 165.356 150.759 164.099 150.759 162.592C150.759 161.084 149.502 159.827 147.993 159.827H61.1085C59.5997 159.827 58.3423 161.084 58.3423 162.592C58.3423 164.225 59.5997 165.356 61.1085 165.356Z" stroke="#C0CCD8" stroke-miterlimit="10"/>
<path d="M48.409 183.827H80.4721C81.2265 183.827 81.8552 183.198 81.8552 182.444C81.8552 181.69 81.2265 181.062 80.4721 181.062H48.409C47.6546 181.062 47.0259 181.69 47.0259 182.444C47.0259 183.198 47.6546 183.827 48.409 183.827Z" fill="#C0CCD8"/>
<path d="M133.282 118.488H165.345C166.099 118.488 166.728 117.86 166.728 117.106C166.728 116.352 166.099 115.724 165.345 115.724H133.282C132.527 115.724 131.899 116.352 131.899 117.106C131.899 117.86 132.527 118.488 133.282 118.488Z" fill="#C0CCD8"/>
<path d="M604.546 210.464H629.065C629.819 210.464 630.448 209.836 630.448 209.082C630.448 208.328 629.819 207.7 629.065 207.7H604.546C603.791 207.7 603.163 208.328 603.163 209.082C603.163 209.836 603.791 210.464 604.546 210.464Z" fill="#C0CCD8"/>
<path d="M109.014 89.3376H82.3579C79.8432 89.3376 77.7056 87.2016 77.7056 84.6886V58.1763C77.7056 55.6633 79.8432 53.5273 82.3579 53.5273H108.889C111.403 53.5273 113.541 55.6633 113.541 58.1763V84.6886C113.667 87.2016 111.529 89.3376 109.014 89.3376Z" stroke="#C0CCD8" stroke-miterlimit="10" stroke-linejoin="round"/>
<path d="M86.8848 69.8616V67.0973H90.0282L89.0223 61.6943H91.9143L92.9202 67.0973H96.6923L95.6864 61.6943H98.5784L99.5843 67.0973H103.482V69.8616H100.087L100.716 73.0029H104.362V75.7672H101.219L102.225 81.1702H99.3328L98.3269 75.7672H94.5548L95.5607 81.1702H92.6687L91.7885 75.7672H87.8907V73.0029H91.2856L90.6569 69.8616H86.8848ZM97.321 69.8616H93.5489L94.1776 73.0029H97.9497L97.321 69.8616Z" fill="#C0CCD8"/>
<path d="M397.833 337.371L422.981 172.141H536.522L509.362 347.172C507.476 358.983 497.669 367.402 485.347 367.402H294.477L293.094 351.318H381.236C389.786 351.444 396.576 345.664 397.833 337.371Z" fill="#475577"/>
<path d="M505.339 337.371L529.606 178.298C530.109 174.654 533.127 172.141 536.773 172.141H537.025C542.18 172.141 546.455 177.041 545.701 181.942L520.05 347.172C518.164 358.983 508.357 367.402 496.034 367.402H373.063L371.68 351.318H488.742C497.166 351.444 504.081 345.664 505.339 337.371Z" fill="#717A91"/>
<path d="M428.513 367.527V457.744" stroke="#544943" stroke-width="1.5" stroke-miterlimit="10"/>
<path d="M479.06 465.66C479.06 461.263 475.539 457.744 471.138 457.744H385.888C381.487 457.744 377.967 461.263 377.967 465.66" stroke="#544943" stroke-width="1.5" stroke-miterlimit="10"/>
<path d="M437.189 465.66C437.189 461.263 433.668 457.744 429.268 457.744" stroke="#544943" stroke-width="1.5" stroke-miterlimit="10"/>
<path d="M471.013 473.702C471.013 478.1 474.659 481.744 479.06 481.744C483.461 481.744 487.107 478.1 487.107 473.702C487.107 469.304 483.461 465.66 479.06 465.66C474.659 465.66 471.013 469.304 471.013 473.702Z" fill="#717A91"/>
<g opacity="0.45">
<path opacity="0.45" d="M476.168 473.702C476.168 475.335 477.551 476.717 479.185 476.717C480.82 476.717 482.203 475.335 482.203 473.702C482.203 472.068 480.82 470.686 479.185 470.686C477.425 470.686 476.168 472.068 476.168 473.702Z" fill="#8E9DB2"/>
</g>
<path d="M429.142 473.702C429.142 478.1 432.788 481.744 437.189 481.744C441.59 481.744 445.236 478.1 445.236 473.702C445.236 469.304 441.59 465.66 437.189 465.66C432.788 465.66 429.142 469.304 429.142 473.702Z" fill="#717A91"/>
<g opacity="0.45">
<path opacity="0.45" d="M434.297 473.702C434.297 475.335 435.68 476.717 437.315 476.717C438.949 476.717 440.333 475.335 440.333 473.702C440.333 472.068 438.949 470.686 437.315 470.686C435.555 470.686 434.297 472.068 434.297 473.702Z" fill="#8E9DB2"/>
</g>
<path d="M369.794 473.702C369.794 478.1 373.44 481.744 377.841 481.744C382.242 481.744 385.888 478.1 385.888 473.702C385.888 469.304 382.242 465.66 377.841 465.66C373.44 465.66 369.794 469.304 369.794 473.702Z" fill="#717A91"/>
<g opacity="0.45">
<path opacity="0.45" d="M374.949 473.702C374.949 475.335 376.332 476.717 377.967 476.717C379.601 476.717 380.985 475.335 380.985 473.702C380.985 472.068 379.601 470.686 377.967 470.686C376.207 470.686 374.949 472.068 374.949 473.702Z" fill="#8E9DB2"/>
</g>
<path d="M339.743 189.983L310.949 147.011L302.021 148.896C308.811 171.89 313.338 180.937 313.338 180.937" fill="#FFCBBB"/>
<path d="M306.674 155.932L302.147 148.77C302.147 148.77 293.597 146.76 290.454 145.252C287.31 143.618 285.298 140.854 284.418 138.467C283.789 136.708 284.041 131.305 284.795 131.179C286.681 130.928 290.328 137.838 291.962 138.215C293.723 138.592 299.255 138.215 302.273 138.592C307.428 139.221 309.566 144.121 309.566 144.121L314.218 152.665" fill="#FFCBBB"/>
<path d="M320.882 159.576L315.853 152.288L302.776 158.068L306.925 169.251" fill="#E6E8EF"/>
<path d="M425.873 144.247C425.873 144.247 404.623 134.446 385.763 151.157C367.028 167.869 354.328 183.324 347.413 188.35L319.247 155.806L303.404 163.22C307.554 186.716 319.247 224.286 347.916 228.181C378.847 232.328 424.238 194.256 424.238 194.256" fill="#B9B5B2"/>
<path d="M356.717 199.156L347.538 188.35" stroke="#846A6A" stroke-miterlimit="10"/>
<path d="M311.452 468.173L313.841 477.346C314.469 479.607 312.709 481.743 310.446 481.743H282.658C281.023 481.743 279.64 480.361 279.64 478.728C279.64 477.471 280.52 476.215 281.778 475.838L300.764 468.173" fill="#0071BC"/>
<path d="M327.546 324.681C331.947 371.422 311.452 468.048 311.452 468.048C311.452 468.048 306.548 473.953 300.638 468.048C300.638 468.048 295.735 375.82 290.454 334.356" fill="#FFCBBB"/>
<path d="M393.935 270.023L361.998 286.734V287.111C361.998 287.111 296.74 282.713 286.933 305.959C271.467 342.397 268.827 460.886 268.827 460.886H316.607C316.607 460.886 334.336 361.37 340.497 355.339C346.532 349.308 371.554 349.685 417.7 349.685C469.378 349.685 444.23 283.09 424.867 277.31" fill="#FCA32D"/>
<path d="M313.212 460.886C313.212 460.886 327.42 358.229 337.857 350.69C350.556 341.518 410.659 347.549 410.659 347.549" stroke="#CE680D" stroke-miterlimit="10"/>
<path d="M411.539 468.173L413.928 477.346C414.556 479.607 412.796 481.743 410.533 481.743H382.745C381.11 481.743 379.727 480.361 379.727 478.728C379.727 477.471 380.607 476.215 381.865 475.838L400.851 468.173" fill="#0071BC"/>
<path d="M406.886 324.681C411.287 371.422 411.539 468.048 411.539 468.048C411.539 468.048 406.635 473.953 400.725 468.048C400.725 468.048 384.002 375.82 378.721 334.356" fill="#FFCBBB"/>
<path d="M450.266 284.724C450.266 284.724 366.399 286.106 355.46 311.487C342.006 342.649 364.261 461.011 364.261 461.011H414.808V355.214C414.808 353.203 416.442 351.318 418.454 351.318C425.496 351.444 441.087 351.444 460.828 351.444C512.506 351.444 487.358 271.028 467.995 265.248" fill="#FFB548"/>
<path d="M450.266 284.724C450.266 284.724 366.399 286.106 355.46 311.487C351.813 319.906 349.927 334.356 350.933 351.444" stroke="#CE680D" stroke-miterlimit="10"/>
<path d="M407.767 460.886C407.767 460.886 407.264 354.711 409.653 349.057C413.048 341.141 424.615 345.036 451.523 345.036C503.201 345.036 482.203 271.028 462.965 265.374" stroke="#ED841B" stroke-miterlimit="10"/>
<path d="M482.455 297.666C482.455 297.666 455.924 298.294 451.9 294.273C447.877 290.252 451.9 272.033 451.9 272.033" stroke="#ED841B" stroke-miterlimit="10"/>
<path d="M483.083 301.184C483.083 301.184 452.781 301.812 448.128 297.791C443.476 293.771 448.128 275.551 448.128 275.551" stroke="#ED841B" stroke-miterlimit="10" stroke-dasharray="3 3"/>
<path d="M488.239 174.151C488.239 174.151 494.651 287.111 484.969 287.111C475.288 287.111 368.285 286.734 361.998 286.734C355.711 286.734 370.423 190.109 391.546 169.754C391.546 169.754 422.855 135.702 436.686 138.969C450.517 142.236 488.239 174.151 488.239 174.151Z" fill="#B9B5B2"/>
<path d="M368.788 225.542L382.116 171.136" stroke="#846A6A" stroke-miterlimit="10"/>
<path d="M542.431 194.632L571.225 151.66L580.153 153.545C573.363 176.539 568.836 185.586 568.836 185.586" fill="#FFCBBB"/>
<path d="M575.5 160.581L580.027 153.419C580.027 153.419 588.577 151.409 591.721 149.901C594.864 148.267 596.876 145.503 597.756 143.116C598.385 141.357 598.133 135.954 597.379 135.828C595.493 135.577 591.846 142.488 590.212 142.864C588.451 143.241 582.919 142.864 579.901 143.241C574.746 143.87 572.608 148.77 572.608 148.77L567.956 157.314" fill="#FFCBBB"/>
<path d="M561.166 164.225L566.322 156.937L579.273 162.843L575.123 173.9" fill="#E6E8EF"/>
<path d="M448.631 144.875C448.631 144.875 469.629 129.922 491.382 148.267C511.626 165.356 525.205 199.91 529.732 199.91C532.875 199.91 552.365 175.031 564.058 159.827L577.889 167.241C569.213 193.879 550.101 239.113 521.685 239.113C499.303 239.113 453.535 186.842 453.535 186.842" fill="#B9B5B2"/>
<path d="M490.125 222.527L456.176 194.255" stroke="#846A6A" stroke-miterlimit="10"/>
<path d="M446.619 147.514L426.376 169.251L423.735 144.121" fill="#E6E8EF"/>
<path d="M446.619 147.514L426.376 169.251L423.735 144.121" stroke="#846A6A" stroke-miterlimit="10" stroke-linejoin="round"/>
<path d="M430.399 125.65L424.741 138.09C424.741 138.09 422.478 145.252 431.908 148.519C442.344 152.037 448.631 144.875 448.631 144.875L450.14 125.273" fill="#FFCBBB"/>
<path d="M449.26 137.713C449.26 137.713 441.716 147.137 431.908 148.519L439.075 159.073C444.859 155.806 451.9 143.116 451.9 143.116L449.26 137.713Z" fill="white"/>
<path d="M425.244 136.456C425.244 136.456 426.501 143.116 431.782 148.519L423.609 154.676C421.723 150.027 421.975 142.864 421.975 142.864L425.244 136.456Z" fill="white"/>
<path d="M421.975 105.546C421.975 105.546 416.568 126.153 424.615 131.305C432.663 136.456 446.745 128.54 447.5 126.027C448.254 123.389 452.026 101.526 446.745 99.8924C437.441 96.8768 424.741 96.7512 421.975 105.546Z" fill="#FFCBBB"/>
<path d="M422.101 112.206C421.975 112.708 422.352 113.337 422.855 113.462C423.358 113.588 423.987 113.211 424.112 112.708C424.238 112.206 423.861 111.578 423.358 111.452C422.855 111.326 422.226 111.703 422.101 112.206Z" fill="#0071BC"/>
<path d="M423.861 106.049C423.484 106.049 421.975 106.3 422.226 107.054C422.352 107.431 422.981 107.431 423.232 107.431C423.61 107.431 423.861 107.305 424.238 107.431C424.112 107.557 424.112 107.682 423.987 107.808C423.861 108.059 424.615 108.059 424.741 108.059C425.496 108.059 426.501 107.934 427.382 108.562C426.879 106.3 424.49 106.049 423.861 106.049Z" fill="#0071BC"/>
<path d="M435.052 115.096C435.052 115.724 434.549 116.101 433.92 116.101C433.291 116.101 432.914 115.598 432.914 114.97C432.914 114.342 433.417 113.965 434.046 113.965C434.674 113.965 435.052 114.467 435.052 115.096Z" fill="#0071BC"/>
<path d="M438.195 110.949C438.949 111.326 439.578 111.954 439.452 112.583C439.327 113.085 438.824 112.96 438.572 112.708C438.069 112.331 437.441 111.954 436.812 111.829C437.063 112.08 437.189 112.457 437.189 112.834C435.177 112.583 433.543 110.949 433.291 108.939C433.291 109.065 434.549 109.818 434.8 109.944C435.806 110.321 437.063 110.321 438.195 110.949Z" fill="#0071BC"/>
<path d="M427.382 113.462C427.382 113.462 424.49 120.624 425.496 121.253C426.501 121.881 430.148 121.755 430.148 121.755" stroke="#EF977F" stroke-miterlimit="10"/>
<path d="M427.256 132.561C427.256 132.561 435.429 135.702 442.596 129.923" stroke="#EF977F" stroke-miterlimit="10"/>
<path d="M431.908 127.661C431.908 127.661 431.154 124.52 425.999 124.52" stroke="#EF977F" stroke-miterlimit="10"/>
<path d="M417.448 94.4891C417.574 93.4839 417.7 92.4787 418.329 91.7248C419.083 90.8452 420.34 90.7196 421.472 90.7196C425.37 90.7196 429.393 91.9761 432.537 94.2378C431.657 93.4839 430.777 92.73 429.896 91.9761C429.142 91.3478 427.633 90.4683 428.388 89.3374C429.016 88.3322 430.902 88.9605 431.908 88.9605C436.435 88.9605 440.71 90.4683 444.859 92.1017C446.871 92.8556 449.008 93.7352 450.769 94.866C452.655 95.9969 454.289 97.6304 455.17 99.6408C455.924 101.4 456.05 103.41 456.05 105.295C456.05 108.688 455.547 112.206 454.918 115.598C454.289 119.368 453.409 126.656 448.506 127.033C447.5 127.158 446.494 127.158 445.739 126.656C444.985 126.153 444.733 125.022 444.608 124.143C444.356 122.635 444.482 121.001 444.859 119.494C443.979 119.996 443.099 120.876 441.967 120.75C441.59 120.75 441.213 120.499 441.087 120.122C440.961 119.87 441.087 119.745 441.087 119.494C441.464 115.975 441.716 112.457 441.967 108.813C436.812 107.682 431.782 106.803 426.627 106.049C424.364 105.672 421.975 105.295 420.089 103.787C417.574 101.526 417.071 97.756 417.448 94.4891Z" fill="#0071BC"/>
<path d="M443.727 120.75C444.608 118.614 446.117 116.101 448.38 117.609C449.26 118.111 449.637 119.242 450.014 120.247C451.02 123.64 448.631 129.043 445.236 128.54C443.602 128.289 442.722 126.279 441.967 124.771" fill="#FFCBBB"/>
<path d="M135.545 345.162C135.545 333.979 130.767 322.796 122.594 315.131C118.57 311.362 113.792 308.472 108.637 306.461C105.745 305.33 91.7881 304.325 91.7881 304.325C91.7881 304.325 93.4227 315.005 96.189 320.408C102.602 332.973 115.427 343.528 135.545 345.162Z" fill="#8EBCA2"/>
<path d="M94.429 377.077C89.3995 370.92 82.1068 366.522 74.1853 365.14C66.2638 363.758 57.9652 365.14 51.0496 369.161C50.7981 369.286 50.5466 369.412 50.5466 369.663C50.4209 369.915 50.6724 370.292 50.9239 370.543C57.4622 377.831 67.5212 381.726 77.203 380.721C81.3523 380.218 90.2797 378.333 94.429 377.077Z" fill="#A2CCB6"/>
<path d="M83.1127 359.988C83.1127 350.188 79.8435 341.518 74.1853 335.738C68.4014 329.958 60.2284 327.319 51.5526 328.324C51.3011 328.324 50.9239 328.45 50.6724 328.701C50.4209 328.953 50.4209 329.455 50.4209 329.832C50.9239 341.518 56.8335 351.318 65.7609 355.214C69.7845 356.973 78.7118 359.486 83.1127 359.988Z" fill="#8EBCA2"/>
<path d="M68.024 342.523C64.1261 336.24 59.4738 330.586 54.0671 325.56C51.9296 323.55 49.6663 321.665 47.0258 320.283C38.6014 315.759 28.2909 317.142 19.2378 320.283C22.8842 327.068 27.5365 333.853 34.4521 337.246C37.4698 338.753 40.8647 339.633 44.1338 340.387C50.6722 341.769 61.2341 341.643 68.024 342.523Z" fill="#A2CCB6"/>
<path d="M72.8019 326.314C89.6507 317.519 92.1655 299.174 92.5427 292.388C92.7942 288.116 92.5427 283.342 89.022 280.326C68.1496 287.614 62.7429 301.687 72.8019 326.314Z" fill="#8EBCA2"/>
<path d="M145.227 323.55C143.969 314.629 142.712 304.953 146.736 296.912C148.244 294.022 150.256 291.509 152.52 289.122C158.052 283.467 165.093 278.818 173.015 278.818C174.398 287.237 172.763 296.032 168.362 303.32C163.962 310.608 156.795 316.136 148.747 318.775" fill="#8EBCA2"/>
<path d="M96.3148 382.103C105.745 378.962 113.667 371.799 117.816 362.878C121.965 353.957 122.217 343.151 118.445 334.104C118.319 333.727 118.067 333.225 117.69 333.099C117.313 332.973 116.936 333.225 116.559 333.35C102.099 341.643 92.1655 365.894 96.3148 382.103Z" fill="#A2CCB6"/>
<path d="M135.796 332.722C138.563 324.932 138.311 316.136 135.419 308.346C132.402 300.556 126.743 294.022 119.451 290.001C116.559 288.368 113.289 287.111 110.649 284.975C109.769 288.87 109.14 292.891 108.889 296.912C108.637 300.933 108.637 304.953 109.643 308.849C112.409 318.775 121.588 325.56 130.767 330.209" fill="#A2CCB6"/>
<path d="M147.993 331.214C163.081 333.099 181.691 326.942 189.738 312.744C163.962 299.55 147.993 319.655 147.993 331.214Z" fill="#A2CCB6"/>
<path d="M139.066 364.889C142.461 353.329 151.388 343.779 162.076 340.261C172.763 336.743 185.086 339.507 193.761 347.172C194.139 347.549 194.516 347.926 194.516 348.428C194.516 348.68 194.264 348.931 194.139 349.182C188.355 357.475 179.176 362.501 169.746 364.512C160.315 366.648 150.633 366.145 140.952 365.391" fill="#A2CCB6"/>
<path d="M158.303 302.817C151.011 309.728 146.107 318.649 142.461 328.073C138.185 339.256 135.168 350.942 132.779 362.753C128.001 386.375 125.36 410.877 124.354 435.002C124.354 435.379 124.857 435.379 124.857 435.002C127.498 411.254 128.755 387.506 133.407 364.135C135.545 352.952 138.311 341.895 142.083 331.214C145.73 320.911 150.633 310.985 158.429 303.069C158.681 302.943 158.429 302.692 158.303 302.817Z" fill="#597F6E"/>
<path d="M131.27 374.941C144.85 355.842 169.997 350.565 192.127 349.559C192.378 349.559 192.378 349.057 192.127 349.057C180.056 348.303 167.357 351.067 156.166 355.591C146.233 359.611 136.551 365.14 130.767 374.564C130.515 374.941 131.018 375.192 131.27 374.941Z" fill="#597F6E"/>
<path d="M135.671 352.575C137.18 335.863 137.054 316.89 125.234 303.571C125.109 303.446 124.732 303.571 124.857 303.823C129.761 310.482 133.03 317.895 134.539 326.063C136.299 334.858 135.419 343.654 135.293 352.575C135.293 352.826 135.671 352.701 135.671 352.575Z" fill="#597F6E"/>
<path d="M170.374 317.393C164.465 317.895 159.184 321.539 154.531 325.183C148.999 329.455 143.844 334.104 138.94 339.005C138.814 339.13 139.066 339.507 139.191 339.256C144.095 335.235 148.37 330.712 153.274 326.691C158.178 322.67 163.836 318.398 170.374 317.519C170.5 317.519 170.5 317.393 170.374 317.393Z" fill="#597F6E"/>
<path d="M102.728 404.217C100.59 385.998 91.6625 368.533 79.8432 354.585C68.0239 340.764 51.678 328.45 33.8233 323.801C33.4461 323.675 33.3203 324.304 33.6975 324.429C42.6249 327.822 50.9236 331.466 58.845 336.743C66.3893 341.895 73.179 347.926 79.0887 354.837C91.4109 369.161 98.7038 385.872 102.35 404.343C102.225 404.469 102.728 404.469 102.728 404.217Z" fill="#597F6E"/>
<path d="M81.3522 294.148C72.5506 311.613 67.2696 335.738 78.083 353.58C78.3345 353.957 78.8375 353.58 78.7117 353.203C69.7844 334.104 73.0535 312.995 81.8552 294.399C81.9809 294.148 81.478 293.896 81.3522 294.148Z" fill="#597F6E"/>
<path d="M70.2871 392.029V406.73C70.2871 465.158 85.6271 481.744 85.6271 481.744H133.282C133.282 481.744 148.622 465.158 148.622 406.73V392.029H70.2871Z" fill="#CCCCCC"/>
<path d="M581.662 481.744L541.3 288.242" stroke="#544943" stroke-width="1.5" stroke-miterlimit="10"/>
<path d="M500.812 481.744L541.3 288.242" stroke="#544943" stroke-width="1.5" stroke-miterlimit="10"/>
<path d="M173.769 481.744L133.407 288.242" stroke="#544943" stroke-width="1.5" stroke-miterlimit="10"/>
<path d="M93.0459 481.744L133.407 288.242" stroke="#544943" stroke-width="1.5" stroke-miterlimit="10"/>
<path d="M98.0225 288.245H580.351V276.685H98.0225V288.245Z" fill="#E7EAF2"/>
<path d="M121.211 254.568H291.711C294.729 254.568 296.992 251.803 296.489 248.788L276.874 138.718C276.245 135.2 273.227 132.687 269.707 132.687H99.2067C96.189 132.687 93.9257 135.451 94.4286 138.467L114.044 248.536C114.673 252.055 117.69 254.568 121.211 254.568Z" fill="#475577"/>
<path d="M117.313 254.568H287.813C290.831 254.568 293.094 251.803 292.591 248.788L272.976 138.718C272.347 135.2 269.33 132.687 265.809 132.687H95.3091C92.2914 132.687 90.0281 135.451 90.5311 138.467L110.146 248.536C110.649 252.055 113.667 254.568 117.313 254.568Z" fill="#C0CCD8"/>
<path opacity="0.45" d="M148.622 254.568H247.074C248.834 254.568 250.218 252.934 249.84 251.301L238.524 187.722C238.147 185.711 236.386 184.203 234.375 184.203H135.922C134.162 184.203 132.779 185.837 133.156 187.47L144.472 251.049C144.85 253.186 146.61 254.568 148.622 254.568Z" fill="#8E9DB2"/>
<path d="M146.233 254.568H244.685C246.445 254.568 247.829 252.934 247.451 251.301L236.135 187.722C235.758 185.711 233.997 184.203 231.986 184.203H133.533C131.773 184.203 130.39 185.837 130.767 187.47L142.083 251.049C142.461 253.186 144.221 254.568 146.233 254.568Z" fill="#C6D2E0"/>
<path d="M168.03 254.575H208.014V217.131H168.03V254.575Z" fill="#8E9DB2"/>
<path d="M157.801 270.651H197.785L208.096 228.055V217.375H170.374L157.801 270.651ZM174.398 247.531C175.781 241.123 180.433 235.846 184.96 235.846C189.486 235.846 192.001 241.123 190.618 247.531C189.235 253.939 184.583 259.217 180.056 259.217C175.53 259.217 173.015 254.065 174.398 247.531Z" fill="#475577"/>
<path d="M230.1 270.651H140.574V276.682H236.135C236.135 273.29 233.494 270.651 230.1 270.651Z" fill="#475577"/>
<path d="M140.579 276.626H212.123V270.595H140.579V276.626Z" fill="#C0CCD8"/>
<path d="M155.411 270.651H195.396L207.97 217.249H167.985L155.411 270.651ZM172.26 247.531C173.643 241.123 178.296 235.846 182.822 235.846C187.349 235.846 189.864 241.123 188.48 247.531C187.097 253.939 182.445 259.217 177.919 259.217C173.392 259.217 170.877 254.065 172.26 247.531Z" fill="#C0CCD8"/>
<g opacity="0.65">
<path opacity="0.65" d="M261.408 143.618L263.797 156.937H261.408L259.019 143.618H261.408Z" fill="#8E9DB2"/>
<path opacity="0.65" d="M254.618 143.618L256.882 156.937H254.618L252.229 143.618H254.618Z" fill="#8E9DB2"/>
<path opacity="0.65" d="M247.703 143.618L250.092 156.937H247.703L245.314 143.618H247.703Z" fill="#8E9DB2"/>
<path opacity="0.65" d="M240.913 143.618L243.176 156.937H240.913L238.524 143.618H240.913Z" fill="#8E9DB2"/>
<path opacity="0.65" d="M233.997 143.618L236.386 156.937H233.997L231.608 143.618H233.997Z" fill="#8E9DB2"/>
</g>
<g opacity="0.65">
<path opacity="0.65" d="M171.506 143.618L173.895 156.937H171.506L169.117 143.618H171.506Z" fill="#8E9DB2"/>
<path opacity="0.65" d="M164.339 143.618L166.602 156.937H164.339L161.95 143.618H164.339Z" fill="#8E9DB2"/>
<path opacity="0.65" d="M157.046 143.618L159.435 156.937H157.046L154.657 143.618H157.046Z" fill="#8E9DB2"/>
<path opacity="0.65" d="M149.879 143.618L152.268 156.937H149.879L147.49 143.618H149.879Z" fill="#8E9DB2"/>
<path opacity="0.65" d="M142.712 143.618L145.101 156.937H142.712L140.323 143.618H142.712Z" fill="#8E9DB2"/>
<path opacity="0.65" d="M135.419 143.618L137.808 156.937H135.419L133.156 143.618H135.419Z" fill="#8E9DB2"/>
<path opacity="0.65" d="M128.252 143.618L130.641 156.937H128.252L125.863 143.618H128.252Z" fill="#8E9DB2"/>
<path opacity="0.65" d="M121.085 143.618L123.474 156.937H121.085L118.696 143.618H121.085Z" fill="#8E9DB2"/>
<path opacity="0.65" d="M113.918 143.618L116.181 156.937H113.918L111.529 143.618H113.918Z" fill="#8E9DB2"/>
<path opacity="0.65" d="M106.625 143.618L109.014 156.937H106.625L104.362 143.618H106.625Z" fill="#8E9DB2"/>
</g>
<g opacity="0.55">
<path opacity="0.55" d="M444.482 246.526C444.482 246.526 443.35 246.275 442.973 245.646C442.093 244.39 443.602 243.008 444.608 242.38C445.865 241.5 447.625 241.249 448.254 239.741C449.008 237.982 447.751 235.971 446.242 234.966C444.985 234.087 443.602 233.71 442.093 233.207C440.584 232.579 438.949 231.699 438.069 230.191C436.938 228.432 437.189 226.045 437.063 224.035C436.435 215.993 428.262 212.098 421.346 211.847C417.951 211.721 412.67 212.977 410.281 215.742C409.527 216.621 408.898 217.752 408.647 218.883C408.27 220.642 409.024 222.401 410.156 223.658C411.287 225.04 412.922 225.794 414.305 227.05C415.688 228.307 414.682 229.689 415.059 231.197C415.437 232.83 416.568 233.584 417.951 234.338C420.969 236.097 424.615 236.474 428.01 237.354C429.016 237.605 430.148 237.982 430.902 238.61C432.034 239.49 432.663 240.746 433.417 241.877C434.926 243.887 437.189 245.395 439.704 245.898" fill="url(#paint0_linear_757_336)"/>
</g>
<path d="M425.244 266.756H431.782V263.614H425.244C423.107 263.614 421.472 261.855 421.472 259.845V254.442C421.472 252.306 423.232 250.672 425.244 250.672H431.782V247.531H425.244C421.346 247.531 418.329 250.672 418.329 254.442V259.845C418.329 263.614 421.346 266.756 425.244 266.756Z" fill="#E8EAEF"/>
<path d="M434.549 274.923H445.614C449.889 274.923 453.284 271.53 453.284 267.258V243.008H426.879V267.258C426.879 271.53 430.274 274.923 434.549 274.923Z" fill="#E8EAEF"/>
<path d="M457.559 270.4C457.559 270.4 457.307 276.556 447.625 276.556H432.537C422.855 276.556 422.604 270.4 422.604 270.4H457.559Z" fill="#C6D2E0"/>
<path d="M385.008 274.169H245.062V276.682H385.008V274.169Z" fill="#475577"/>
<path d="M380.23 272.159H370.171V274.169H380.23V272.159Z" fill="#475577"/>
<path d="M365.016 272.159H354.957V274.169H365.016V272.159Z" fill="#475577"/>
<path d="M349.927 272.159H339.868V274.169H349.927V272.159Z" fill="#475577"/>
<path d="M334.713 272.159H324.654V274.169H334.713V272.159Z" fill="#475577"/>
<path d="M319.499 272.159H309.44V274.169H319.499V272.159Z" fill="#475577"/>
<path d="M304.285 272.159H294.226V274.169H304.285V272.159Z" fill="#475577"/>
<path d="M289.196 272.159H279.137V274.169H289.196V272.159Z" fill="#475577"/>
<path d="M273.982 272.159H263.923V274.169H273.982V272.159Z" fill="#475577"/>
<path d="M258.768 272.159H248.709V274.169H258.768V272.159Z" fill="#475577"/>
<path d="M383.122 274.169H243.176V276.682H383.122V274.169Z" fill="#C0CCD8"/>
<path d="M378.344 272.159H368.285V274.169H378.344V272.159Z" fill="#C0CCD8"/>
<path d="M363.256 272.159H353.197V274.169H363.256V272.159Z" fill="#C0CCD8"/>
<path d="M348.041 272.159H337.982V274.169H348.041V272.159Z" fill="#C0CCD8"/>
<path d="M332.827 272.159H322.768V274.169H332.827V272.159Z" fill="#C0CCD8"/>
<path d="M317.739 272.159H307.68V274.169H317.739V272.159Z" fill="#C0CCD8"/>
<path d="M302.524 272.159H292.465V274.169H302.524V272.159Z" fill="#C0CCD8"/>
<path d="M287.31 272.159H277.251V274.169H287.31V272.159Z" fill="#C0CCD8"/>
<path d="M272.096 272.159H262.037V274.169H272.096V272.159Z" fill="#C0CCD8"/>
<path d="M257.007 272.159H246.948V274.169H257.007V272.159Z" fill="#C0CCD8"/>
<path d="M582.29 370.417C580.53 363.506 581.284 355.967 584.428 349.559C587.571 343.151 592.978 337.874 599.516 334.984C602.157 333.853 605.049 332.973 607.438 331.34C607.94 334.733 608.066 338.251 608.066 341.643C608.066 345.036 607.689 348.554 606.557 351.695C603.54 359.988 595.115 365.14 586.942 368.407" fill="#8EBCA2"/>
<path d="M581.536 392.783C582.164 385.118 581.787 377.454 582.793 369.915C584.051 361.245 588.074 353.329 593.732 346.669C593.858 346.418 593.607 346.167 593.481 346.418C580.781 358.355 581.033 376.7 581.284 392.783C581.284 392.909 581.536 392.909 581.536 392.783Z" fill="#597F6E"/>
<path d="M601.779 413.767C603.037 404.217 608.318 395.296 616.114 389.642C620.011 386.877 624.412 384.867 628.939 383.862C631.579 383.234 643.524 383.862 643.524 383.862C643.524 383.862 641.01 392.783 637.992 397.055C631.202 406.982 619.131 414.646 601.779 413.767Z" fill="#8EBCA2"/>
<path d="M612.341 383.108C612.593 377.328 613.725 371.548 615.485 366.145C616.239 363.883 616.994 361.747 618.251 359.863C622.275 353.58 629.693 350.565 636.86 349.308C636.986 355.339 636.231 361.747 632.962 366.773C631.453 369.035 629.567 370.794 627.556 372.553C623.658 376.072 616.491 379.967 612.341 383.108Z" fill="#A2CCB6"/>
<path d="M571.728 362.124C572.86 354.46 573.866 346.167 570.345 339.256C569.088 336.743 567.327 334.607 565.316 332.597C560.663 327.822 554.502 323.801 547.712 323.801C546.455 330.963 547.964 338.628 551.736 344.91C555.634 350.941 564.813 359.863 571.728 362.124Z" fill="#A2CCB6"/>
<path d="M584.051 406.73C576.883 408.238 569.213 406.605 563.178 402.458C557.143 398.312 553.119 391.527 551.987 384.364C551.987 383.988 551.862 383.736 552.113 383.485C552.365 383.234 552.616 383.234 552.993 383.234C565.441 382.982 580.781 394.793 584.051 406.73Z" fill="#A2CCB6"/>
<path d="M609.449 378.962C599.265 373.182 592.726 361.747 592.475 349.308C599.768 348.931 605.426 353.454 608.569 357.35C613.096 362.753 613.473 372.176 609.449 378.962Z" fill="#A2CCB6"/>
<path d="M602.157 399.066C604.923 392.28 604.043 384.239 599.893 378.208C595.87 372.176 588.577 368.281 581.284 368.281C581.033 368.281 580.656 368.281 580.404 368.533C580.278 368.658 580.278 368.909 580.278 369.035C580.027 375.318 582.793 381.349 586.691 386.249C590.589 391.15 595.744 394.919 600.774 398.563" fill="#A2CCB6"/>
<path d="M560.286 344.408C573.614 357.852 578.267 378.71 581.787 396.804C585.811 416.908 586.691 437.389 589.206 457.744C589.206 458.121 589.709 458.121 589.709 457.744C588.954 437.012 586.565 415.777 582.416 395.422C578.77 377.831 574.117 357.098 560.538 344.282C560.412 344.031 560.16 344.282 560.286 344.408Z" fill="#597F6E"/>
<path d="M602.66 409.872C603.54 404.469 602.785 397.055 600.271 392.029C600.145 391.778 599.768 391.904 599.893 392.155C601.277 398.06 602.282 403.589 602.157 409.62C602.157 410.123 602.66 410.248 602.66 409.872Z" fill="#597F6E"/>
<path d="M601.151 357.978C609.324 366.02 610.204 380.218 607.689 390.647C607.689 390.898 607.941 391.024 608.066 390.773C611.461 380.721 609.45 365.266 601.151 357.978C601.151 357.978 601.151 357.852 601.151 357.978Z" fill="#597F6E"/>
<path d="M598.762 445.305C599.642 431.232 600.648 417.411 604.546 403.84C606.557 396.804 609.072 390.019 612.467 383.485C615.862 376.825 620.137 371.171 624.789 365.391C625.041 365.14 624.664 364.637 624.412 365.014C614.227 374.815 608.066 389.39 604.168 402.835C600.271 416.405 597.882 431.358 598.385 445.431C598.259 445.556 598.762 445.556 598.762 445.305Z" fill="#597F6E"/>
<path d="M556.64 420.552V430.604C556.64 470.435 569.842 481.744 569.842 481.744H610.707C610.707 481.744 623.909 470.435 623.909 430.604V420.552H556.64Z" fill="#CCCCCC"/>
<path d="M646.542 481.743H4.65234" stroke="#475577" stroke-width="2" stroke-miterlimit="10"/>
<path d="M205.514 69.1826C205.572 65.735 205.963 63.0117 206.688 61.0127C207.412 59.0137 208.889 56.7974 211.12 54.3638L216.813 48.4971C219.247 45.7448 220.463 42.7897 220.463 39.6318C220.463 36.5898 219.667 34.2142 218.073 32.5049C216.48 30.7666 214.162 29.8975 211.12 29.8975C208.165 29.8975 205.789 30.6797 203.993 32.2441C202.197 33.8086 201.299 35.909 201.299 38.5454H193.259C193.317 33.8521 194.983 30.0713 198.257 27.2031C201.56 24.306 205.847 22.8574 211.12 22.8574C216.596 22.8574 220.854 24.335 223.896 27.29C226.967 30.2161 228.503 34.2432 228.503 39.3711C228.503 44.4411 226.156 49.4386 221.463 54.3638L216.726 59.0571C214.611 61.4038 213.554 64.779 213.554 69.1826H205.514ZM205.167 82.9585C205.167 81.6548 205.558 80.5684 206.34 79.6992C207.151 78.8011 208.339 78.3521 209.903 78.3521C211.468 78.3521 212.656 78.8011 213.467 79.6992C214.278 80.5684 214.684 81.6548 214.684 82.9585C214.684 84.2622 214.278 85.3486 213.467 86.2178C212.656 87.0579 211.468 87.478 209.903 87.478C208.339 87.478 207.151 87.0579 206.34 86.2178C205.558 85.3486 205.167 84.2622 205.167 82.9585Z" fill="#19292E"/>
<path d="M263.514 69.1826C263.572 65.735 263.963 63.0117 264.688 61.0127C265.412 59.0137 266.889 56.7974 269.12 54.3638L274.813 48.4971C277.247 45.7448 278.463 42.7897 278.463 39.6318C278.463 36.5898 277.667 34.2142 276.073 32.5049C274.48 30.7666 272.162 29.8975 269.12 29.8975C266.165 29.8975 263.789 30.6797 261.993 32.2441C260.197 33.8086 259.299 35.909 259.299 38.5454H251.259C251.317 33.8521 252.983 30.0713 256.257 27.2031C259.56 24.306 263.847 22.8574 269.12 22.8574C274.596 22.8574 278.854 24.335 281.896 27.29C284.967 30.2161 286.503 34.2432 286.503 39.3711C286.503 44.4411 284.156 49.4386 279.463 54.3638L274.726 59.0571C272.611 61.4038 271.554 64.779 271.554 69.1826H263.514ZM263.167 82.9585C263.167 81.6548 263.558 80.5684 264.34 79.6992C265.151 78.8011 266.339 78.3521 267.903 78.3521C269.468 78.3521 270.656 78.8011 271.467 79.6992C272.278 80.5684 272.684 81.6548 272.684 82.9585C272.684 84.2622 272.278 85.3486 271.467 86.2178C270.656 87.0579 269.468 87.478 267.903 87.478C266.339 87.478 265.151 87.0579 264.34 86.2178C263.558 85.3486 263.167 84.2622 263.167 82.9585Z" fill="#19292E"/>
<path d="M321.514 69.1826C321.572 65.735 321.963 63.0117 322.688 61.0127C323.412 59.0137 324.889 56.7974 327.12 54.3638L332.813 48.4971C335.247 45.7448 336.463 42.7897 336.463 39.6318C336.463 36.5898 335.667 34.2142 334.073 32.5049C332.48 30.7666 330.162 29.8975 327.12 29.8975C324.165 29.8975 321.789 30.6797 319.993 32.2441C318.197 33.8086 317.299 35.909 317.299 38.5454H309.259C309.317 33.8521 310.983 30.0713 314.257 27.2031C317.56 24.306 321.847 22.8574 327.12 22.8574C332.596 22.8574 336.854 24.335 339.896 27.29C342.967 30.2161 344.503 34.2432 344.503 39.3711C344.503 44.4411 342.156 49.4386 337.463 54.3638L332.726 59.0571C330.611 61.4038 329.554 64.779 329.554 69.1826H321.514ZM321.167 82.9585C321.167 81.6548 321.558 80.5684 322.34 79.6992C323.151 78.8011 324.339 78.3521 325.903 78.3521C327.468 78.3521 328.656 78.8011 329.467 79.6992C330.278 80.5684 330.684 81.6548 330.684 82.9585C330.684 84.2622 330.278 85.3486 329.467 86.2178C328.656 87.0579 327.468 87.478 325.903 87.478C324.339 87.478 323.151 87.0579 322.34 86.2178C321.558 85.3486 321.167 84.2622 321.167 82.9585Z" fill="#19292E"/>
<defs>
<linearGradient id="paint0_linear_757_336" x1="428.521" y1="246.511" x2="428.521" y2="211.825" gradientUnits="userSpaceOnUse">
<stop stop-color="white" stop-opacity="0.1"/>
<stop offset="1" stop-color="white" stop-opacity="0.4"/>
</linearGradient>
</defs>
</svg>
